<svg xmlns="http://www.w3.org/2000/svg" xmlns:xlink="http://www.w3.org/1999/xlink" id="Layer_1" width="24" height="32" x="0" y="0" enable-background="new 0 0 24 32" version="1.1" viewBox="0 0 24 32" xml:space="preserve"><style type="text/css">.st0{fill:#bab388}.st1{fill:#e59784}.st2{fill:#e1bab5}.st3{fill:#b6ccdf}.st4{fill:#a9a69a}.st5{fill:#e3e1d0}</style><g><path d="M13.1,13c1,0,1.8,0.8,1.8,1.8s-0.8,1.8-1.8,1.8s-1.8-0.8-1.8-1.8S12.2,13,13.1,13z" class="st0"/><polygon points="20 21.7 20 26.6 14.2 26.6 11.1 21.9 16.4 17.7" class="st1"/><polygon points="11.1 21.9 14.2 26.6 4 26.6 4 22.6 8.3 17.4" class="st2"/><path d="M20,11.1v10.6l-3.6-4l-5.3,4.1l-2.9-4.4L4,22.6V11.1H20z M14.9,14.8c0-1-0.8-1.8-1.8-1.8s-1.8,0.8-1.8,1.8 s0.8,1.8,1.8,1.8S14.9,15.8,14.9,14.8z" class="st3"/><polygon points="23.5 7.8 17.3 7.8 17.3 1.6" class="st4"/><path d="M23.5,7.8v22.5h-23V1.6h16.8v6.2H23.5z M20,26.6v-4.9V11.1H4v11.5v4h10.1H20z" class="st5"/></g></svg>